<svg width="40" height="40" viewBox="0 0 40 40" fill="none" xmlns="http://www.w3.org/2000/svg">
<path d="M30.1916 9.7103C32.6471 12.1288 32.6471 16.055 30.1916 18.4733L16.8458 31.6181C15.1152 33.3226 12.296 33.3226 10.5654 31.6181C8.83485 29.9135 8.83479 27.1368 10.5654 25.4323L23.9112 12.2875C24.917 11.2969 26.5691 11.2969 27.5749 12.2875C28.5806 13.2781 28.5806 14.9053 27.5749 15.8959L16.0609 27.2365C15.9228 27.376 15.7336 27.4554 15.5356 27.4566C15.3376 27.4579 15.1473 27.3811 15.0074 27.2433C14.8672 27.1053 14.7893 26.9179 14.7906 26.7229C14.7919 26.5278 14.8724 26.3415 15.0144 26.2054L26.5283 14.8649C26.9724 14.4276 26.9724 13.7559 26.5283 13.3185C26.0843 12.8812 25.4023 12.8812 24.9583 13.3185L11.6125 26.4633C10.4436 27.6146 10.4436 29.4361 11.6125 30.5871C12.7814 31.7384 14.6307 31.7384 15.7993 30.5871L29.1451 17.4423C31.0388 15.5771 31.0388 12.6061 29.1451 10.7413C27.2514 8.87613 24.2349 8.87613 22.3417 10.7413L10.3043 22.5974C10.1662 22.7372 9.977 22.817 9.77874 22.8183C9.58049 22.8198 9.38998 22.7428 9.25006 22.6047C9.10989 22.4667 9.03167 22.2793 9.03323 22.084C9.03452 21.8887 9.11532 21.7024 9.25755 21.5663L21.2949 9.71033C23.7503 7.29187 27.7367 7.29187 30.1919 9.71033L30.1916 9.7103Z" fill="#787878"/>
</svg>
