<svg width="42" height="42" viewBox="0 0 42 42" fill="none" xmlns="http://www.w3.org/2000/svg">
    <circle cx="21" cy="21" r="21" fill="url(#5jzzpfuw4a)"/>
    <path fill-rule="evenodd" clip-rule="evenodd" d="M28.366 14.156a.36.36 0 0 0-.38-.36 9.262 9.262 0 0 0-6.38 3.08.36.36 0 0 0-.091.244l.134 8.938a.36.36 0 0 0 .578.282 10.347 10.347 0 0 1 5.796-2.097.36.36 0 0 0 .343-.36v-9.727zm-14.351-.36a.36.36 0 0 0-.38.36v9.727c0 .192.15.35.343.36 2.153.097 4.222.863 5.919 2.191a.36.36 0 0 0 .582-.289l-.137-9.194a.36.36 0 0 0-.097-.24 9.267 9.267 0 0 0-6.23-2.915zM11 16.655a1 1 0 0 1 1-1h.463v9.172a.583.583 0 0 0 .613.585 9.283 9.283 0 0 1 6.383 2.178l.753.635H12a1 1 0 0 1-1-1v-10.57zm20 10.57a1 1 0 0 1-1 1h-8.212l.753-.635a9.287 9.287 0 0 1 6.384-2.178.59.59 0 0 0 .565-.355.584.584 0 0 0 .047-.23v-9.172H30a1 1 0 0 1 1 1v10.57z" fill="#fff"/>
    <defs>
        <linearGradient id="5jzzpfuw4a" x1="21" y1="0" x2="21" y2="42" gradientUnits="userSpaceOnUse">
            <stop stop-color="#FFD24A"/>
            <stop offset="1" stop-color="#F7BA00"/>
        </linearGradient>
    </defs>
</svg>
