<svg width="25" height="24" viewBox="0 0 25 24" fill="none" xmlns="http://www.w3.org/2000/svg">
    <path fill-rule="evenodd" clip-rule="evenodd" d="m22.083 8.005-.757-.776.935-.93.78.777-.958.93zM18.25 11.84l-.762-.777 3.158-3.152.78.757-3.176 3.172zm-.957 11.203H1.959V1.958h10.542v4.313c0 .264.215.479.48.479h4.312v3.153l-7.04 7.024a.479.479 0 0 0-.129.22l-.45 1.817-.388.383a.481.481 0 0 0 .68.68l.384-.387 1.816-.432a.517.517 0 0 0 .22-.13l4.907-4.91v8.874zM13.459 2.634l3.158 3.158h-3.158V2.634zm-1.654 15.654-1.045.264.264-1.04 5.788-5.774.776.762-5.783 5.788zM24 7.071c0-.255-.102-.5-.283-.68l-.771-.772a.958.958 0 0 0-1.361 0l-1.28 1.27-2.055 2.056V6.27c0-.128-.05-.25-.139-.34l-4.792-4.792a.48.48 0 0 0-.34-.14H1.48A.48.48 0 0 0 1 1.48v22.042c0 .264.215.479.48.479h16.29a.48.48 0 0 0 .48-.48V13.21l3.833-3.834.403.398a.479.479 0 0 1 0 .68l-3.158 3.153a.481.481 0 1 0 .68.68l3.154-3.158c.56-.56.56-1.47 0-2.031l-.38-.431.935-.93A.959.959 0 0 0 24 7.071z" fill="#28A19C"/>
    <path fill-rule="evenodd" clip-rule="evenodd" d="M3.333 5.551H7.33a.332.332 0 1 0 0-.663H3.333a.332.332 0 1 0 0 .663zM3.333 8.468h7.334c.184 0 .333-.151.333-.337a.335.335 0 0 0-.333-.337H3.333A.335.335 0 0 0 3 8.131c0 .186.15.337.333.337zM3.333 11.374h6.67a.333.333 0 0 0 .334-.332.333.333 0 0 0-.334-.332h-6.67a.333.333 0 0 0-.333.332c0 .183.15.332.333.332zM3.334 14.29h4.67a.333.333 0 0 0 .333-.332.333.333 0 0 0-.334-.332h-4.67a.333.333 0 0 0-.333.332c0 .183.15.332.334.332zM6.003 16.532h-2.67A.335.335 0 0 0 3 16.87c0 .186.15.337.334.337h2.669c.184 0 .334-.151.334-.337a.335.335 0 0 0-.334-.337zM5.003 19.448h-1.67A.333.333 0 0 0 3 19.78c0 .183.15.332.334.332h1.669a.333.333 0 0 0 .334-.332.333.333 0 0 0-.334-.332z" fill="#28A19C"/>
</svg>
