<svg width="25" height="24" viewBox="0 0 25 24" fill="none" xmlns="http://www.w3.org/2000/svg">
    <path fill-rule="evenodd" clip-rule="evenodd" d="M21.227 14.278a4.059 4.059 0 0 1-5.663 0l-2.762-2.71v-.135l2.762-2.711a4.059 4.059 0 0 1 5.663 0 3.877 3.877 0 0 1 0 5.556zm-12.79 0a4.059 4.059 0 0 1-5.663 0 3.877 3.877 0 0 1 0-5.556 4.058 4.058 0 0 1 5.662 0l2.763 2.71v.135l-2.763 2.71zM22.357 7.61c-2.189-2.148-5.738-2.148-7.927 0L12 9.996 9.57 7.61c-2.19-2.148-5.74-2.148-7.928 0a5.427 5.427 0 0 0 0 7.778c2.189 2.148 5.738 2.148 7.927 0L12 13.004l2.43 2.385c2.19 2.148 5.74 2.148 7.928 0a5.427 5.427 0 0 0 0-7.778z" fill="#28A19C"/>
</svg>
