<svg width="16" height="13" viewBox="0 0 16 13" fill="none" xmlns="http://www.w3.org/2000/svg">
    <path fill-rule="evenodd" clip-rule="evenodd" d="M12.048 1.213c-.387.01-.746.18-1.04.418.47 1.455.34 3.096-.353 4.368.153.209.312.37.477.48l1.746.983c.532.346.806.934.811 1.588v2.697h1.87c.308-.032.439-.323.441-.627V8.57c0-.28-.093-.474-.282-.586L13.02 6.458c.7-.611 1.052-1.528 1.058-2.466-.018-.743-.21-1.432-.59-1.965-.399-.511-.893-.81-1.438-.815v.001zm-8.115 0c-.593.027-1.063.331-1.42.815a3.536 3.536 0 0 0-.59 1.965c.024 1.018.408 1.983 1.093 2.487L.282 7.985C.094 8.068 0 8.263 0 8.57v2.549c.015.338.163.622.44.627h1.818V9.05c.03-.721.316-1.304.83-1.588l1.816-1.024c.141-.098.276-.23.406-.398-.75-1.369-.853-3.009-.37-4.451-.314-.228-.667-.374-1.006-.377v.001zM7.958 0C6.58 0 5.463 1.545 5.463 3.45c0 1.322.537 2.47 1.326 3.05l-.915.502L3.439 8.34c-.235.14-.352.375-.352.71v3.176c.02.397.22.767.546.774h8.662c.372-.039.56-.394.564-.774V9.05c0-.335-.117-.571-.352-.71L10.16 7.002l-.975-.547c.756-.593 1.268-1.716 1.268-3.004C10.453 1.545 9.336 0 7.958 0z" fill="#787878"/>
</svg>
