<svg width="25" height="24" viewBox="0 0 25 24" fill="none" xmlns="http://www.w3.org/2000/svg">
    <path fill-rule="evenodd" clip-rule="evenodd" d="m8.485 21.56.782-5.852c.22.281.532.5.908.563a1.699 1.699 0 0 0 1.533-.407.666.666 0 0 1 .876 0c.313.282.72.438 1.127.438.125 0 .25-.03.406-.062.376-.094.657-.282.908-.563l.782 5.85-3.66-2.91-3.662 2.942zm8.637-8.45c.031.251-.031.439-.219.595-.156.125-.375.188-.563.125-.845-.25-1.721.22-2.034 1.064-.063.22-.25.345-.438.407a.596.596 0 0 1-.595-.156c-.626-.595-1.627-.595-2.284 0a.596.596 0 0 1-.595.156c-.219-.063-.375-.188-.438-.407-.25-.688-.876-1.126-1.564-1.126-.157 0-.313.031-.438.062a.6.6 0 0 1-.563-.125c-.157-.156-.25-.344-.22-.563v-.031c.126-.876-.438-1.69-1.314-1.847-.219-.03-.375-.187-.469-.375-.094-.188-.063-.407.063-.595l.03-.03c.501-.69.376-1.69-.28-2.254a.621.621 0 0 1-.22-.563.653.653 0 0 1 .344-.5l.032-.032c.782-.407 1.126-1.314.782-2.128-.094-.187-.063-.406.063-.594a.615.615 0 0 1 .531-.282h.094c.845 0 1.565-.626 1.659-1.502v-.031a.653.653 0 0 1 .344-.5.663.663 0 0 1 .594 0l.032.03c.75.407 1.69.188 2.159-.531l.031-.032a.615.615 0 0 1 .532-.281c.22 0 .407.094.532.281l.031.032c.47.72 1.408.938 2.16.532l.03-.032a.663.663 0 0 1 .595 0 .653.653 0 0 1 .344.501v.031c.094.845.783 1.502 1.659 1.502h.094c.219 0 .406.094.532.282.125.188.156.407.062.594-.313.814 0 1.721.782 2.097l.032.031a.653.653 0 0 1 .344.5c.031.22-.063.408-.22.564a1.69 1.69 0 0 0-.28 2.253l.03.031c.126.188.157.407.063.595s-.25.344-.47.375a1.715 1.715 0 0 0-1.376 1.878zm3.222-5.82a1.63 1.63 0 0 0-.907-1.282l-.032-.032c-.281-.156-.438-.5-.281-.813a1.64 1.64 0 0 0-.156-1.565 1.652 1.652 0 0 0-1.377-.72h-.063a.64.64 0 0 1-.626-.563v-.03A1.695 1.695 0 0 0 16.026.97c-.5-.25-1.064-.25-1.564 0L14.43 1c-.281.157-.657.063-.813-.219l-.032-.031A1.641 1.641 0 0 0 12.21 0a1.64 1.64 0 0 0-1.377.75L10.8.783c-.188.282-.532.376-.814.22L9.956.97c-.5-.25-1.064-.25-1.565 0-.5.25-.813.75-.876 1.314v.031a.64.64 0 0 1-.626.564h-.094a1.69 1.69 0 0 0-1.376.72 1.64 1.64 0 0 0-.157 1.564.632.632 0 0 1-.313.813l-.031.032c-.5.25-.845.75-.907 1.283a1.67 1.67 0 0 0 .594 1.47c.25.22.313.595.125.845l-.094.063c-.313.47-.406 1.032-.187 1.564a1.71 1.71 0 0 0 1.189 1.033c.313.062.532.375.5.72v.03a1.545 1.545 0 0 0 .564 1.472c.438.375 1 .5 1.533.344.031 0 .094-.032.125-.032L7.108 24l5.038-4.068L17.184 24l-1.252-9.2c.032 0 .094 0 .126.032a1.609 1.609 0 0 0 1.533-.345c.438-.375.625-.938.563-1.47v-.031a.672.672 0 0 1 .5-.72 1.598 1.598 0 0 0 1.19-1.033c.219-.532.125-1.095-.188-1.564l-.031-.032c-.188-.281-.157-.657.125-.844.438-.376.657-.94.594-1.502z" fill="#28A19C"/>
</svg>
