<svg width="20" height="20" viewBox="0 0 20 20" fill="none" xmlns="http://www.w3.org/2000/svg">
<path fill-rule="evenodd" clip-rule="evenodd" d="M9.08253 6.85531C9.08253 6.10219 9.55603 5.49168 10.1401 5.49168C10.7242 5.49168 11.1977 6.10219 11.1977 6.85531V15.0371C11.1977 15.7902 10.7242 16.4008 10.1401 16.4008C9.55603 16.4008 9.08253 15.7902 9.08253 15.0371V6.85531Z" fill="white"/>
<path fill-rule="evenodd" clip-rule="evenodd" d="M9.99893 3.3033C9.49686 3.3033 9.08984 3.71031 9.08984 4.21239C9.08984 4.71447 9.49686 5.12148 9.99893 5.12148C10.501 5.12148 10.908 4.71447 10.908 4.21239C10.908 3.71031 10.501 3.3033 9.99893 3.3033Z" fill="white"/>
<path d="M0.65 10C0.65 4.83614 4.83614 0.65 10 0.65C15.1639 0.65 19.35 4.83614 19.35 10C19.35 15.1639 15.1639 19.35 10 19.35C4.83614 19.35 0.65 15.1639 0.65 10Z" stroke="white" stroke-width="1.3"/>
</svg>
