<svg width="32" height="32" viewBox="0 0 32 32" fill="none" xmlns="http://www.w3.org/2000/svg">
<g filter="url(#filter0_d_192_9665)">
<circle cx="16" cy="12" r="12" fill="url(#paint0_linear_192_9665)"/>
<g clip-path="url(#clip0_192_9665)">
<path d="M10.3691 7.54688L10.8662 7.04982L11.9012 8.08478L11.4041 8.58184L10.3691 7.54688Z" fill="white"/>
<path d="M10 9.51562H11.4311V10.2188H10V9.51562Z" fill="white"/>
<path d="M10.377 12.1787L11.4109 11.1448L11.908 11.6418L10.874 12.6758L10.377 12.1787Z" fill="white"/>
<path d="M20.0957 8.08594L21.1307 7.05097L21.6277 7.54803L20.5928 8.583L20.0957 8.08594Z" fill="white"/>
<path d="M20.5684 9.51562H21.9994V10.2188H20.5684V9.51562Z" fill="white"/>
<path d="M20.0879 11.6426L20.585 11.1455L21.6189 12.1795L21.1218 12.6765L20.0879 11.6426Z" fill="white"/>
<path d="M16 18C16.9692 18 17.7578 17.2114 17.7578 16.2422V15.1406H14.2422V16.2422C14.2422 17.2114 15.0308 18 16 18Z" fill="white"/>
<path d="M19.8087 9.18431C19.4894 7.33931 17.8878 6 16.0006 6C14.1133 6 12.5117 7.33931 12.1924 9.18466C11.9713 10.4632 12.394 11.7592 13.323 12.6509C13.8206 13.1286 14.1231 13.7668 14.2062 14.4375H17.7949C17.8782 13.7666 18.1806 13.1285 18.6781 12.6509C19.6072 11.7592 20.0298 10.4632 19.8087 9.18431ZM16.3521 12.3281H15.649V11.625H16.3521V12.3281ZM16.6255 10.0137C16.4543 10.1398 16.3521 10.3416 16.3521 10.5537V10.9219H15.649V10.5537C15.649 10.119 15.8582 9.70552 16.2086 9.44754C16.2998 9.38037 16.3521 9.27705 16.3521 9.16406C16.3521 8.97021 16.1944 8.8125 16.0006 8.8125C15.8067 8.8125 15.649 8.97021 15.649 9.16406V9.51562H14.9459V9.16406C14.9459 8.58251 15.419 8.10938 16.0006 8.10938C16.5821 8.10938 17.0553 8.58251 17.0553 9.16406C17.0553 9.49795 16.8946 9.8156 16.6255 10.0137Z" fill="white"/>
</g>
</g>
<defs>
<filter id="filter0_d_192_9665" x="0" y="0" width="32" height="32" filterUnits="userSpaceOnUse" color-interpolation-filters="sRGB">
<feFlood flood-opacity="0" result="BackgroundImageFix"/>
<feColorMatrix in="SourceAlpha" type="matrix" values="0 0 0 0 0 0 0 0 0 0 0 0 0 0 0 0 0 0 127 0" result="hardAlpha"/>
<feOffset dy="4"/>
<feGaussianBlur stdDeviation="2"/>
<feComposite in2="hardAlpha" operator="out"/>
<feColorMatrix type="matrix" values="0 0 0 0 0 0 0 0 0 0 0 0 0 0 0 0 0 0 0.25 0"/>
<feBlend mode="normal" in2="BackgroundImageFix" result="effect1_dropShadow_192_9665"/>
<feBlend mode="normal" in="SourceGraphic" in2="effect1_dropShadow_192_9665" result="shape"/>
</filter>
<linearGradient id="paint0_linear_192_9665" x1="16" y1="0" x2="16" y2="24" gradientUnits="userSpaceOnUse">
<stop stop-color="#43E3DD"/>
<stop offset="1" stop-color="#28A19C"/>
</linearGradient>
<clipPath id="clip0_192_9665">
<rect width="12" height="12" fill="white" transform="translate(10 6)"/>
</clipPath>
</defs>
</svg>
