<svg width="40" height="40" viewBox="0 0 40 40" fill="none" xmlns="http://www.w3.org/2000/svg">
<path d="M19.6992 26C21.0247 25.9982 22.2957 25.4021 23.2332 24.3423C24.1705 23.2822 24.6976 21.845 24.6992 20.3461V10.6538C24.6992 8.63388 23.7462 6.76747 22.1992 5.75739C20.6523 4.74754 18.7462 4.74754 17.1992 5.75739C15.6523 6.76747 14.6992 8.63388 14.6992 10.6538V20.3461C14.7008 21.845 15.2279 23.2822 16.1652 24.3423C17.1027 25.4021 18.3737 25.9982 19.6992 26ZM16.1278 10.6538C16.1278 9.21103 16.8086 7.87782 17.9135 7.15643C19.0184 6.43504 20.38 6.43504 21.4849 7.15643C22.5898 7.87782 23.2706 9.21103 23.2706 10.6538V20.3461C23.2706 21.7889 22.5898 23.1221 21.4849 23.8435C20.38 24.5649 19.0184 24.5649 17.9135 23.8435C16.8086 23.1221 16.1278 21.7889 16.1278 20.3461V10.6538Z" fill="#787878"/>
<path d="M27.2273 15C26.8006 15 26.4545 15.3545 26.4545 15.7917V20.5416C26.4545 23.0871 25.129 25.4393 22.9773 26.712C20.8256 27.9845 18.1744 27.9845 16.0227 26.712C13.871 25.4392 12.5455 23.0871 12.5455 20.5416V15.7917C12.5455 15.3545 12.1994 15 11.7727 15C11.346 15 11 15.3545 11 15.7917V20.5416C11.0026 22.7131 11.7962 24.8056 13.2255 26.4095C14.6547 28.0131 16.6165 29.0124 18.7273 29.2121V32.4167H14.8636C14.437 32.4167 14.0909 32.7712 14.0909 33.2083C14.0909 33.6455 14.437 34 14.8636 34H24.1364C24.563 34 24.9091 33.6455 24.9091 33.2083C24.9091 32.7712 24.563 32.4167 24.1364 32.4167H20.2727V29.2121C22.3835 29.0124 24.3453 28.0131 25.7745 26.4095C27.2038 24.8059 27.9974 22.7134 28 20.5416V15.7917C28 15.5816 27.9185 15.3804 27.7736 15.2319C27.6287 15.0835 27.4323 15 27.2273 15Z" fill="#787878"/>
</svg>
