<svg width="32" height="32" viewBox="0 0 32 32" fill="none" xmlns="http://www.w3.org/2000/svg">
<g filter="url(#filter0_d_192_9568)">
<circle cx="16" cy="12" r="12" fill="url(#paint0_linear_192_9568)"/>
<g clip-path="url(#clip0_192_9568)">
<path d="M22.0012 9.83755C21.9446 9.41197 21.9367 8.67896 22.3319 8.43283C22.339 8.42831 22.3443 8.4218 22.3505 8.4162C22.6736 8.31283 22.8973 8.16777 22.7217 7.97257L17.9544 6.53613L10.2351 7.60936C10.2351 7.60936 9.35111 7.73571 9.43008 9.10905C9.47294 9.85652 9.70738 10.2236 9.9124 10.4043L9.27895 10.5952C9.10314 10.7904 9.32675 10.9355 9.64997 11.0387C9.65611 11.0444 9.66129 11.0509 9.66848 11.0554C10.0635 11.3018 10.0559 12.0347 9.99909 12.4604C8.57992 12.8633 9.08935 12.9947 9.08935 12.9947L9.40066 13.07C9.18169 13.2679 8.96422 13.6431 9.00495 14.3547C9.08396 15.7278 9.81003 15.8226 9.81003 15.8226L14.8615 17.4645L22.4862 15.6177C22.4862 15.6177 22.9958 15.4862 21.5762 15.0832C21.5191 14.6582 21.5112 13.9253 21.9072 13.6784C21.9144 13.674 21.9197 13.6673 21.9256 13.6618C22.2488 13.5584 22.4723 13.4135 22.2967 13.2183L21.9653 13.1182C22.1863 12.985 22.5183 12.6366 22.5703 11.7318C22.6062 11.1094 22.4438 10.7449 22.2559 10.5304L22.9109 10.3718C22.911 10.3721 23.4206 10.2406 22.0012 9.83755ZM15.6237 9.81996L16.9059 9.55644L21.2389 8.66601L21.8845 8.53323C21.6782 8.91076 21.6868 9.42742 21.721 9.7595C21.7285 9.83462 21.7371 9.90323 21.7454 9.95537L21.0388 10.1311L15.5698 11.4916L15.6237 9.81996ZM10.116 11.1562L10.7615 11.289L14.9227 12.1444L15.2863 12.2189L16.3765 12.443L16.4302 14.1146L10.8093 12.7162L10.2551 12.5785C10.2633 12.5262 10.2719 12.4577 10.2797 12.3824C10.3136 12.0506 10.3224 11.5338 10.116 11.1562ZM9.86523 9.04296C9.85741 8.67766 9.92251 8.41348 10.0541 8.2792C10.1378 8.19346 10.2366 8.17562 10.3044 8.17562C10.3402 8.17562 10.366 8.18059 10.3677 8.18059L13.6938 9.26494L15.3532 9.80596L15.2988 11.4893L10.6434 10.1841L10.3978 10.1153C10.3887 10.1128 10.3765 10.111 10.3671 10.1106C10.3479 10.1092 9.88762 10.0668 9.86523 9.04296ZM14.8736 16.7352L9.97269 15.3612C9.96362 15.3586 9.9515 15.3568 9.94206 15.3564C9.92255 15.3551 9.46208 15.3127 9.43981 14.2891C9.43187 13.9234 9.4973 13.6594 9.62862 13.525C9.71256 13.4393 9.81141 13.4214 9.87906 13.4214C9.91495 13.4214 9.94064 13.4262 9.94252 13.4262C9.94252 13.4262 9.94273 13.4262 9.94252 13.4262L14.9277 15.0519L14.8736 16.7352ZM21.2955 15.0052C21.3033 15.0806 21.3119 15.149 21.3202 15.2013L15.1445 16.7376L15.1985 15.0659L16.5188 14.7945L16.7138 14.8417L17.4446 14.6041L20.8135 13.9119L21.4593 13.779C21.2528 14.1565 21.2613 14.6734 21.2955 15.0052ZM21.6357 12.7334C21.6245 12.7336 21.6132 12.7351 21.6027 12.7384L21.1369 12.8688L16.7019 14.1124L16.6477 12.4291L18.1027 11.9545L21.626 10.8055C21.6265 10.8053 21.8114 10.7642 21.9471 10.9022C22.0784 11.0365 22.1436 11.3007 22.1359 11.666C22.1129 12.6895 21.6525 12.7321 21.6357 12.7334Z" fill="white"/>
</g>
</g>
<defs>
<filter id="filter0_d_192_9568" x="0" y="0" width="32" height="32" filterUnits="userSpaceOnUse" color-interpolation-filters="sRGB">
<feFlood flood-opacity="0" result="BackgroundImageFix"/>
<feColorMatrix in="SourceAlpha" type="matrix" values="0 0 0 0 0 0 0 0 0 0 0 0 0 0 0 0 0 0 127 0" result="hardAlpha"/>
<feOffset dy="4"/>
<feGaussianBlur stdDeviation="2"/>
<feComposite in2="hardAlpha" operator="out"/>
<feColorMatrix type="matrix" values="0 0 0 0 0 0 0 0 0 0 0 0 0 0 0 0 0 0 0.25 0"/>
<feBlend mode="normal" in2="BackgroundImageFix" result="effect1_dropShadow_192_9568"/>
<feBlend mode="normal" in="SourceGraphic" in2="effect1_dropShadow_192_9568" result="shape"/>
</filter>
<linearGradient id="paint0_linear_192_9568" x1="16" y1="0" x2="16" y2="24" gradientUnits="userSpaceOnUse">
<stop stop-color="#43E3DD"/>
<stop offset="1" stop-color="#28A19C"/>
</linearGradient>
<clipPath id="clip0_192_9568">
<rect width="14" height="14" fill="white" transform="translate(9 5)"/>
</clipPath>
</defs>
</svg>
